<?xml version="1.0"?>
<svg width="117.86726000000002" height="117.86722" xmlns="http://www.w3.org/2000/svg" xmlns:svg="http://www.w3.org/2000/svg" version="1.1">

 <metadata id="metadata4667">image/svg+xml</metadata>
 <g class="layer">
  <title>Layer 1</title>
  <g id="layer1">
   <g id="g899">
    <path clip-rule="nonzero" d="m56.54,0.05l-0.36,0.02l0.07,1.47a57.46,57.46 0 0 1 0.35,-0.02l-0.06,-1.47zm4.78,0l-0.06,1.47a57.46,57.46 0 0 1 0.35,0.02l0.07,-1.47l-0.36,-0.02zm-7.35,0.16l-0.35,0.03l0.13,1.47a57.46,57.46 0 0 1 0.35,-0.03l-0.13,-1.47zm9.92,0l-0.13,1.47a57.46,57.46 0 0 1 0.35,0.03l0.13,-1.47l-0.35,-0.03zm-15.02,0.66l-0.35,0.06l0.26,1.45a57.46,57.46 0 0 1 0.34,-0.06l-0.25,-1.45zm20.12,0l-0.26,1.45a57.46,57.46 0 0 1 0.35,0.06l0.26,-1.45l-0.35,-0.06zm-22.64,0.49l-0.35,0.08l0.32,1.44a57.46,57.46 0 0 1 0.35,-0.08l-0.32,-1.44zm25.16,0l-0.32,1.44a57.46,57.46 0 0 1 0.35,0.08l0.32,-1.44l-0.35,-0.08zm-30.13,1.32l-0.34,0.1l0.44,1.41a57.46,57.46 0 0 1 0.34,-0.11l-0.44,-1.4zm35.1,0l-0.44,1.4a57.46,57.46 0 0 1 0.34,0.11l0.44,-1.41l-0.34,-0.1zm-37.54,0.82l-0.33,0.12l0.5,1.38a57.46,57.46 0 0 1 0.33,-0.12l-0.5,-1.38zm39.98,0l-0.5,1.38a57.46,57.46 0 0 1 0.33,0.12l0.5,-1.38l-0.33,-0.12zm-44.74,1.95l-0.32,0.15l0.63,1.33a57.46,57.46 0 0 1 0.32,-0.15l-0.63,-1.33zm49.5,0l-0.63,1.33a57.46,57.46 0 0 1 0.32,0.15l0.63,-1.33l-0.32,-0.15zm-51.81,1.13l-0.31,0.16l0.68,1.31a57.46,57.46 0 0 1 0.31,-0.16l-0.68,-1.31zm54.12,0l-0.68,1.31a57.46,57.46 0 0 1 0.31,0.16l0.68,-1.31l-0.31,-0.16zm-58.58,2.56l-0.29,0.19l0.79,1.24a57.46,57.46 0 0 1 0.3,-0.19l-0.8,-1.24zm63.04,0l-0.8,1.24a57.46,57.46 0 0 1 0.3,0.19l0.79,-1.24l-0.29,-0.19zm-65.18,1.42l-0.29,0.2l0.85,1.21a57.46,57.46 0 0 1 0.29,-0.2l-0.85,-1.21zm67.32,0l-0.85,1.21a57.46,57.46 0 0 1 0.29,0.2l0.85,-1.21l-0.29,-0.2zm-71.41,3.12l-0.27,0.22l0.95,1.13a57.46,57.46 0 0 1 0.27,-0.22l-0.95,-1.13zm75.5,0l-0.95,1.13a57.46,57.46 0 0 1 0.27,0.22l0.95,-1.13l-0.27,-0.22zm-77.43,1.69l-0.27,0.24l1,1.08a57.46,57.46 0 0 1 0.26,-0.24l-0.99,-1.08zm79.36,0l-0.99,1.08a57.46,57.46 0 0 1 0.26,0.24l1,-1.08l-0.27,-0.24zm-83.01,3.62l-0.24,0.26l1.09,1a57.46,57.46 0 0 1 0.24,-0.26l-1.09,-1zm86.66,0l-1.09,1a57.46,57.46 0 0 1 0.24,0.26l1.09,-1l-0.24,-0.26zm-88.36,1.93l-0.23,0.27l1.13,0.95a57.46,57.46 0 0 1 0.23,-0.27l-1.13,-0.95zm90.06,0l-1.13,0.95a57.46,57.46 0 0 1 0.23,0.27l1.13,-0.95l-0.23,-0.27zm-93.2,4.07l-0.21,0.29l1.21,0.84a57.46,57.46 0 0 1 0.2,-0.29l-1.2,-0.84zm96.34,0l-1.2,0.84a57.46,57.46 0 0 1 0.2,0.29l1.21,-0.84l-0.21,-0.29zm-97.78,2.13l-0.19,0.3l1.24,0.79a57.46,57.46 0 0 1 0.19,-0.3l-1.24,-0.79zm99.22,0l-1.24,0.79a57.46,57.46 0 0 1 0.19,0.3l1.24,-0.79l-0.19,-0.3zm-101.8,4.45l-0.17,0.31l1.31,0.68a57.46,57.46 0 0 1 0.16,-0.31l-1.3,-0.68zm104.38,0l-1.3,0.68a57.46,57.46 0 0 1 0.16,0.31l1.31,-0.68l-0.17,-0.31zm-105.53,2.3l-0.15,0.32l1.34,0.62a57.46,57.46 0 0 1 0.15,-0.32l-1.34,-0.62zm106.68,0l-1.34,0.62a57.46,57.46 0 0 1 0.15,0.32l1.34,-0.62l-0.15,-0.32zm-108.66,4.74l-0.12,0.34l1.39,0.5a57.46,57.46 0 0 1 0.12,-0.33l-1.39,-0.51zm110.64,0l-1.39,0.51a57.46,57.46 0 0 1 0.12,0.33l1.39,-0.5l-0.12,-0.34zm-111.47,2.43l-0.11,0.34l1.41,0.45a57.46,57.46 0 0 1 0.1,-0.34l-1.4,-0.45zm112.3,0l-1.4,0.45a57.46,57.46 0 0 1 0.1,0.34l1.41,-0.45l-0.11,-0.34zm-113.65,4.97l-0.07,0.34l1.43,0.32a57.46,57.46 0 0 1 0.08,-0.34l-1.44,-0.32zm115,0l-1.44,0.32a57.46,57.46 0 0 1 0.08,0.34l1.43,-0.32l-0.07,-0.34zm-115.51,2.52l-0.06,0.34l1.45,0.26a57.46,57.46 0 0 1 0.06,-0.35l-1.45,-0.25zm116.02,0l-1.45,0.25a57.46,57.46 0 0 1 0.06,0.35l1.45,-0.26l-0.06,-0.34zm-116.7,5.09l-0.03,0.35l1.46,0.13a57.46,57.46 0 0 1 0.04,-0.35l-1.47,-0.13zm117.38,0l-1.46,0.13a57.46,57.46 0 0 1 0.03,0.35l1.46,-0.13l-0.03,-0.35zm-117.56,2.57l-0.01,0.35l1.47,0.06a57.46,57.46 0 0 1 0.01,-0.35l-1.47,-0.06zm117.74,0l-1.47,0.06a57.46,57.46 0 0 1 0.01,0.35l1.47,-0.06l-0.01,-0.35zm-116.28,5.08l-1.47,0.06l0.01,0.35l1.47,-0.06a57.46,57.46 0 0 1 -0.01,-0.35zm114.82,0a57.46,57.46 0 0 1 -0.01,0.35l1.47,0.06l0.01,-0.35l-1.47,-0.06zm-114.67,2.5l-1.46,0.13l0.03,0.35l1.46,-0.13a57.46,57.46 0 0 1 -0.03,-0.35zm114.52,0a57.46,57.46 0 0 1 -0.03,0.35l1.46,0.13l0.03,-0.35l-1.46,-0.13zm-113.88,4.97l-1.45,0.26l0.06,0.34l1.45,-0.25a57.46,57.46 0 0 1 -0.06,-0.35zm113.24,0a57.46,57.46 0 0 1 -0.06,0.35l1.45,0.25l0.06,-0.34l-1.45,-0.26zm-112.75,2.46l-1.44,0.32l0.07,0.34l1.44,-0.32a57.46,57.46 0 0 1 -0.07,-0.34zm112.27,0a57.46,57.46 0 0 1 -0.08,0.34l1.44,0.32l0.07,-0.34l-1.43,-0.32zm-110.99,4.85l-1.41,0.44l0.11,0.33l1.4,-0.44a57.46,57.46 0 0 1 -0.1,-0.33zm109.7,0a57.46,57.46 0 0 1 -0.1,0.33l1.4,0.44l0.11,-0.33l-1.41,-0.44zm-108.9,2.37l-1.39,0.51l0.12,0.33l1.39,-0.51a57.46,57.46 0 0 1 -0.12,-0.33zm108.1,0a57.46,57.46 0 0 1 -0.12,0.33l1.39,0.51l0.12,-0.33l-1.39,-0.51zm-106.2,4.64l-1.34,0.62l0.15,0.32l1.34,-0.62a57.46,57.46 0 0 1 -0.15,-0.32zm104.3,0a57.46,57.46 0 0 1 -0.15,0.32l1.34,0.62l0.15,-0.32l-1.34,-0.62zm-103.2,2.25l-1.31,0.68l0.17,0.31l1.3,-0.68a57.46,57.46 0 0 1 -0.16,-0.31zm102.1,0a57.46,57.46 0 0 1 -0.16,0.31l1.3,0.68l0.17,-0.31l-1.31,-0.68zm-99.61,4.35l-1.24,0.79l0.19,0.3l1.24,-0.79a57.46,57.46 0 0 1 -0.19,-0.3zm97.12,0a57.46,57.46 0 0 1 -0.19,0.3l1.24,0.79l0.19,-0.3l-1.24,-0.79zm-1.39,2.09a57.46,57.46 0 0 1 -0.2,0.29l1.2,0.84l0.21,-0.29l-1.21,-0.84zm-94.34,0l-1.21,0.84l0.21,0.29l1.2,-0.84a57.46,57.46 0 0 1 -0.2,-0.29zm3.04,3.98l-1.13,0.95l0.23,0.27l1.13,-0.95a57.46,57.46 0 0 1 -0.23,-0.27zm88.26,0a57.46,57.46 0 0 1 -0.23,0.27l1.13,0.95l0.23,-0.27l-1.13,-0.95zm-1.65,1.89a57.46,57.46 0 0 1 -0.24,0.26l1.09,1l0.24,-0.26l-1.09,-1zm-84.96,0l-1.09,1l0.24,0.26l1.09,-1a57.46,57.46 0 0 1 -0.24,-0.26zm3.53,3.56l-1,1.09l0.27,0.23l0.99,-1.08a57.46,57.46 0 0 1 -0.26,-0.24zm77.9,0a57.46,57.46 0 0 1 -0.26,0.24l0.99,1.08l0.27,-0.23l-1,-1.09zm-1.88,1.66a57.46,57.46 0 0 1 -0.27,0.22l0.95,1.13l0.27,-0.22l-0.95,-1.13zm-74.14,0l-0.95,1.13l0.27,0.22l0.95,-1.13a57.46,57.46 0 0 1 -0.27,-0.22zm3.97,3.06l-0.85,1.21l0.29,0.2l0.85,-1.21a57.46,57.46 0 0 1 -0.29,-0.2zm66.2,0a57.46,57.46 0 0 1 -0.29,0.2l0.85,1.21l0.29,-0.2l-0.85,-1.21zm-64.12,1.4l-0.79,1.24l0.29,0.19l0.8,-1.24a57.46,57.46 0 0 1 -0.3,-0.19zm62.04,0a57.46,57.46 0 0 1 -0.3,0.19l0.8,1.24l0.29,-0.19l-0.79,-1.24zm-57.71,2.52l-0.68,1.31l0.31,0.16l0.68,-1.31a57.46,57.46 0 0 1 -0.31,-0.16zm53.38,0a57.46,57.46 0 0 1 -0.31,0.16l0.68,1.31l0.31,-0.16l-0.68,-1.31zm-51.13,1.12l-0.63,1.33l0.32,0.15l0.63,-1.33a57.46,57.46 0 0 1 -0.32,-0.15zm48.88,0a57.46,57.46 0 0 1 -0.32,0.15l0.63,1.33l0.32,-0.15l-0.63,-1.33zm-44.26,1.93l-0.5,1.38l0.33,0.12l0.5,-1.38a57.46,57.46 0 0 1 -0.33,-0.12zm39.64,0a57.46,57.46 0 0 1 -0.33,0.12l0.5,1.38l0.33,-0.12l-0.5,-1.38zm-37.27,0.81l-0.44,1.41l0.34,0.1l0.44,-1.4a57.46,57.46 0 0 1 -0.34,-0.11zm34.9,0a57.46,57.46 0 0 1 -0.34,0.11l0.44,1.4l0.34,-0.1l-0.44,-1.41zm-30.06,1.31l-0.32,1.44l0.35,0.08l0.31,-1.44a57.46,57.46 0 0 1 -0.34,-0.08zm25.22,0a57.46,57.46 0 0 1 -0.35,0.08l0.32,1.44l0.35,-0.08l-0.32,-1.44zm-22.76,0.5l-0.26,1.45l0.35,0.06l0.25,-1.45a57.46,57.46 0 0 1 -0.34,-0.06zm20.3,0a57.46,57.46 0 0 1 -0.35,0.06l0.26,1.45l0.35,-0.06l-0.26,-1.45zm-15.33,0.67l-0.13,1.47l0.35,0.03l0.13,-1.47a57.46,57.46 0 0 1 -0.35,-0.03zm10.36,0a57.46,57.46 0 0 1 -0.35,0.03l0.13,1.47l0.35,-0.03l-0.13,-1.47zm-7.86,0.17l-0.07,1.47l0.36,0.02l0.06,-1.47a57.46,57.46 0 0 1 -0.35,-0.02zm5.36,0a57.46,57.46 0 0 1 -0.35,0.02l0.06,1.47l0.36,-0.02l-0.07,-1.47z" display="inline" enable-background="accumulate" fill="#ffffff" fill-rule="nonzero" id="path4073-7" stroke-dashoffset="0" stroke-miterlimit="4" stroke-width="0.35"/>
    <path clip-rule="nonzero" d="m44.02,1.92l-0.68,0.18l1.14,4.27a54.51,54.51 0 0 1 0.68,-0.18l-1.14,-4.27zm29.82,0l-1.14,4.27a54.51,54.51 0 0 1 0.68,0.18l1.14,-4.27l-0.68,-0.18zm-56.33,15.09l-0.5,0.5l3.13,3.13a54.51,54.51 0 0 1 0.49,-0.5l-3.12,-3.13zm82.84,0l-3.12,3.13a54.51,54.51 0 0 1 0.5,0.5l3.12,-3.13l-0.5,-0.5zm-98.25,26.33l-0.19,0.68l4.27,1.15a54.51,54.51 0 0 1 0.19,-0.68l-4.27,-1.15zm113.66,0l-4.27,1.15a54.51,54.51 0 0 1 0.19,0.68l4.27,-1.15l-0.19,-0.68zm-109.58,29.36l-4.27,1.15l0.19,0.68l4.27,-1.15a54.51,54.51 0 0 1 -0.19,-0.68zm105.5,0a54.51,54.51 0 0 1 -0.19,0.68l4.27,1.15l0.19,-0.68l-4.27,-1.15zm-91.55,24.53l-3.12,3.13l0.5,0.5l3.12,-3.13a54.51,54.51 0 0 1 -0.5,-0.5zm77.6,0a54.51,54.51 0 0 1 -0.5,0.5l3.12,3.13l0.5,-0.5l-3.12,-3.13zm-53.25,14.27l-1.14,4.27l0.68,0.18l1.14,-4.27a54.51,54.51 0 0 1 -0.68,-0.18zm28.9,0a54.51,54.51 0 0 1 -0.68,0.18l1.14,4.27l0.68,-0.18l-1.14,-4.27z" display="inline" enable-background="accumulate" fill="#ffffff" fill-rule="nonzero" id="path3922-3" stroke-dashoffset="0" stroke-miterlimit="4" stroke-width="0.71"/>
    <path clip-rule="nonzero" d="m58.4,0l0,5.9a53.04,53.04 0 0 1 0.53,0a53.04,53.04 0 0 1 0.53,0l0,-5.9l-1.06,0zm-28.48,7.63l-0.91,0.53l2.94,5.11a53.04,53.04 0 0 1 0.92,-0.53l-2.95,-5.11zm58.02,0l-2.95,5.11a53.04,53.04 0 0 1 0.92,0.53l2.94,-5.11l-0.91,-0.53zm-79.78,21.38l-0.53,0.92l5.1,2.95a53.04,53.04 0 0 1 0.53,-0.92l-5.1,-2.95zm101.54,0l-5.1,2.95a53.04,53.04 0 0 1 0.53,0.92l5.1,-2.95l-0.53,-0.92zm-109.7,29.4l0,1.05l5.89,0a53.04,53.04 0 0 1 0,-0.52a53.04,53.04 0 0 1 0,-0.53l-5.89,0zm111.97,0a53.04,53.04 0 0 1 0,0.53a53.04,53.04 0 0 1 0,0.52l5.89,0l0,-1.05l-5.89,0zm-6.84,26.58a53.04,53.04 0 0 1 -0.53,0.92l5.1,2.95l0.53,-0.92l-5.1,-2.95zm-92.4,0l-5.1,2.95l0.53,0.92l5.1,-2.95a53.04,53.04 0 0 1 -0.53,-0.92zm19.22,19.61l-2.94,5.11l0.91,0.53l2.95,-5.11a53.04,53.04 0 0 1 -0.92,-0.53zm53.96,0a53.04,53.04 0 0 1 -0.92,0.53l2.95,5.11l0.91,-0.53l-2.94,-5.11zm-27.51,7.37l0,5.9l1.06,0l0,-5.9a53.04,53.04 0 0 1 -0.53,0.01a53.04,53.04 0 0 1 -0.53,-0.01z" display="inline" enable-background="accumulate" fill="#ffffff" fill-rule="nonzero" id="path3889-1" stroke-dashoffset="0" stroke-miterlimit="4" stroke-width="1.06"/>
    <path clip-rule="nonzero" d="m51.59,0.46l-0.7,0.09l0.57,4.39a54.51,54.51 0 0 1 0.7,-0.1l-0.57,-4.38zm14.68,0l-0.58,4.38a54.51,54.51 0 0 1 0.7,0.1l0.58,-4.39l-0.7,-0.09zm-29.57,3.89l-0.65,0.27l1.69,4.09a54.51,54.51 0 0 1 0.66,-0.27l-1.7,-4.09zm44.46,0l-1.69,4.09a54.51,54.51 0 0 1 0.65,0.27l1.69,-4.09l-0.65,-0.27zm-57.83,7.62l-0.56,0.43l2.69,3.5a54.51,54.51 0 0 1 0.57,-0.43l-2.7,-3.5zm71.2,0l-2.7,3.5a54.51,54.51 0 0 1 0.57,0.43l2.69,-3.5l-0.56,-0.43zm-82.14,10.81l-0.43,0.56l3.51,2.69a54.51,54.51 0 0 1 0.43,-0.56l-3.51,-2.69zm93.08,0l-3.51,2.69a54.51,54.51 0 0 1 0.43,0.56l3.51,-2.69l-0.43,-0.56zm-100.85,13.28l-0.27,0.65l4.08,1.69a54.51,54.51 0 0 1 0.27,-0.65l-4.08,-1.69zm108.62,0l-4.08,1.69a54.51,54.51 0 0 1 0.27,0.65l4.08,-1.69l-0.27,-0.65zm-112.69,14.83l-0.09,0.7l4.38,0.58a54.51,54.51 0 0 1 0.09,-0.7l-4.38,-0.58zm116.76,0l-4.38,0.58a54.51,54.51 0 0 1 0.09,0.7l4.38,-0.58l-0.09,-0.7zm-112.47,14.81l-4.38,0.58l0.09,0.7l4.38,-0.58a54.51,54.51 0 0 1 -0.09,-0.7zm108.18,0a54.51,54.51 0 0 1 -0.09,0.7l4.38,0.58l0.09,-0.7l-4.38,-0.58zm-104.59,13.77l-4.08,1.69l0.27,0.66l4.08,-1.7a54.51,54.51 0 0 1 -0.27,-0.65zm101,0a54.51,54.51 0 0 1 -0.27,0.65l4.08,1.7l0.27,-0.66l-4.08,-1.69zm-93.96,12.37l-3.51,2.69l0.43,0.56l3.51,-2.69a54.51,54.51 0 0 1 -0.43,-0.56zm86.92,0a54.51,54.51 0 0 1 -0.43,0.56l3.51,2.69l0.43,-0.56l-3.51,-2.69zm-76.92,10.13l-2.7,3.5l0.56,0.43l2.7,-3.5a54.51,54.51 0 0 1 -0.56,-0.43zm66.92,0a54.51,54.51 0 0 1 -0.56,0.43l2.7,3.5l0.56,-0.43l-2.7,-3.5zm-54.65,7.19l-1.69,4.09l0.65,0.27l1.7,-4.09a54.51,54.51 0 0 1 -0.66,-0.27zm42.38,0a54.51,54.51 0 0 1 -0.65,0.27l1.69,4.09l0.65,-0.27l-1.69,-4.09zm-28.66,3.77l-0.57,4.39l0.7,0.09l0.57,-4.38a54.51,54.51 0 0 1 -0.7,-0.1zm14.93,0a54.51,54.51 0 0 1 -0.7,0.1l0.58,4.38l0.7,-0.09l-0.58,-4.39z" display="inline" enable-background="accumulate" fill="#ffffff" fill-rule="nonzero" id="path2562-6-2-4-5" stroke-dashoffset="0" stroke-miterlimit="4" stroke-width="0.71"/>
    <path d="m80.22,15.3c-0.7,0 -1.24,0.19 -1.6,0.57c-0.37,0.37 -0.55,0.89 -0.55,1.57l0,3.41c0,0.67 0.18,1.2 0.54,1.57c0.37,0.38 0.9,0.57 1.61,0.57c0.7,0 1.23,-0.19 1.59,-0.56c0.37,-0.38 0.55,-0.9 0.55,-1.58l0,-3.41c0,-0.68 -0.18,-1.21 -0.55,-1.58c-0.36,-0.37 -0.89,-0.56 -1.59,-0.56zm4.46,0.1l-1.07,0.71l0,1.09l1.07,-0.66l0,6.37l1.06,0l0,-7.51l-1.06,0zm-4.46,0.9c0.37,0 0.65,0.1 0.82,0.3c0.18,0.19 0.27,0.47 0.27,0.84l0,3.41c0,0.37 -0.09,0.65 -0.27,0.84c-0.18,0.2 -0.45,0.29 -0.82,0.29c-0.38,0 -0.65,-0.09 -0.83,-0.29c-0.18,-0.19 -0.26,-0.47 -0.26,-0.84l0,-3.41c0,-0.37 0.08,-0.65 0.26,-0.84c0.17,-0.2 0.45,-0.3 0.83,-0.3z" fill="#ffffff" id="path4471" stroke-width="0.26"/>
    <path d="m95.88,32.12c-0.7,0 -1.23,0.19 -1.6,0.56c-0.36,0.38 -0.55,0.9 -0.55,1.57l0,3.42c0,0.67 0.18,1.2 0.55,1.57c0.36,0.38 0.9,0.56 1.6,0.56c0.7,0 1.23,-0.18 1.6,-0.55c0.36,-0.38 0.54,-0.9 0.54,-1.58l0,-3.42c0,-0.67 -0.18,-1.2 -0.54,-1.57c-0.37,-0.37 -0.9,-0.56 -1.6,-0.56zm5.67,0.02c-0.4,0 -0.75,0.08 -1.05,0.24c-0.3,0.16 -0.55,0.39 -0.75,0.7c-0.19,0.3 -0.31,0.67 -0.37,1.1l0,0l1.09,0l0,0c0.04,-0.33 0.15,-0.59 0.34,-0.77c0.19,-0.18 0.44,-0.27 0.75,-0.27c0.32,0 0.57,0.08 0.75,0.25c0.17,0.16 0.26,0.39 0.26,0.69l0,0.01c0,0.19 -0.04,0.39 -0.13,0.61c-0.08,0.21 -0.2,0.42 -0.35,0.62l-2.62,3.49l0,0.92l4.24,0l0,-1.01l-2.84,0l2.17,-2.95c0.2,-0.27 0.35,-0.55 0.46,-0.84c0.11,-0.29 0.17,-0.57 0.17,-0.83l0,-0.01c0,-0.41 -0.09,-0.76 -0.25,-1.06c-0.17,-0.29 -0.41,-0.51 -0.73,-0.66c-0.31,-0.16 -0.69,-0.23 -1.14,-0.23zm-5.67,0.98c0.37,0 0.65,0.1 0.83,0.3c0.17,0.19 0.26,0.47 0.26,0.83l0,3.42c0,0.37 -0.09,0.65 -0.27,0.84c-0.18,0.2 -0.45,0.29 -0.82,0.29c-0.37,0 -0.65,-0.09 -0.83,-0.29c-0.17,-0.19 -0.26,-0.47 -0.26,-0.84l0,-3.42c0,-0.36 0.09,-0.64 0.26,-0.83c0.18,-0.2 0.45,-0.3 0.83,-0.3z" fill="#ffffff" id="path4476" stroke-width="0.26"/>
    <path d="m102.09,55.09c-0.7,0 -1.23,0.19 -1.6,0.57c-0.36,0.37 -0.55,0.89 -0.55,1.57l0,3.41c0,0.67 0.19,1.2 0.55,1.57c0.36,0.38 0.9,0.57 1.6,0.57c0.7,0 1.23,-0.19 1.6,-0.56c0.36,-0.38 0.54,-0.9 0.54,-1.58l0,-3.41c0,-0.68 -0.18,-1.21 -0.54,-1.58c-0.37,-0.37 -0.9,-0.56 -1.6,-0.56zm5.6,0.02c-0.38,0 -0.71,0.07 -1.01,0.23c-0.29,0.15 -0.53,0.37 -0.73,0.66c-0.18,0.3 -0.31,0.65 -0.38,1.06l1.07,0c0.04,-0.21 0.11,-0.39 0.21,-0.53c0.1,-0.14 0.22,-0.24 0.36,-0.31c0.14,-0.06 0.3,-0.1 0.48,-0.1c0.31,0 0.56,0.08 0.72,0.24c0.18,0.17 0.26,0.4 0.26,0.69l0,0.23c0,0.32 -0.08,0.57 -0.24,0.75c-0.16,0.17 -0.39,0.26 -0.68,0.26l-0.53,0l0,1l0.53,0c0.33,0 0.59,0.11 0.77,0.31c0.19,0.21 0.28,0.5 0.28,0.87l0,0.23c0,0.34 -0.1,0.6 -0.29,0.79c-0.2,0.18 -0.47,0.27 -0.81,0.27c-0.22,0 -0.42,-0.03 -0.58,-0.09c-0.16,-0.07 -0.3,-0.18 -0.4,-0.31c-0.1,-0.14 -0.17,-0.32 -0.2,-0.53l-1.08,0c0.05,0.41 0.18,0.76 0.37,1.05c0.2,0.29 0.45,0.52 0.78,0.67c0.32,0.15 0.69,0.23 1.11,0.23c0.45,0 0.84,-0.08 1.16,-0.25c0.32,-0.16 0.57,-0.39 0.74,-0.7c0.17,-0.31 0.25,-0.69 0.25,-1.12l0,-0.13c0,-0.48 -0.11,-0.88 -0.34,-1.2c-0.22,-0.31 -0.54,-0.51 -0.95,-0.6c0.37,-0.13 0.66,-0.33 0.86,-0.61c0.21,-0.28 0.31,-0.61 0.31,-0.98l0,-0.13c0,-0.62 -0.18,-1.1 -0.54,-1.44c-0.35,-0.34 -0.85,-0.51 -1.5,-0.51zm-5.6,0.99c0.37,0 0.65,0.09 0.83,0.29c0.17,0.19 0.26,0.47 0.26,0.84l0,3.41c0,0.37 -0.09,0.65 -0.27,0.85c-0.17,0.19 -0.45,0.28 -0.82,0.28c-0.37,0 -0.65,-0.09 -0.83,-0.28c-0.17,-0.2 -0.26,-0.48 -0.26,-0.85l0,-3.41c0,-0.37 0.09,-0.65 0.26,-0.84c0.18,-0.2 0.45,-0.29 0.83,-0.29z" fill="#ffffff" id="path4481" stroke-width="0.26"/>
    <path d="m95.6,78.08c-0.7,0 -1.23,0.19 -1.59,0.56c-0.37,0.38 -0.55,0.9 -0.55,1.58l0,3.41c0,0.67 0.18,1.2 0.54,1.57c0.37,0.38 0.9,0.57 1.6,0.57c0.7,0 1.23,-0.19 1.6,-0.56c0.36,-0.38 0.55,-0.9 0.55,-1.58l0,-3.41c0,-0.68 -0.19,-1.21 -0.55,-1.58c-0.36,-0.37 -0.9,-0.56 -1.6,-0.56zm6.13,0.1l-2.53,5.44l0,0.92l3.24,0l0,1.15l1.03,0l0,-1.15l0.57,0l0,-0.98l-0.57,0l0,-2.29l-1.03,0l0,2.29l-2.09,0l2.46,-5.38l-1.08,0zm-6.13,0.9c0.38,0 0.65,0.1 0.83,0.3c0.17,0.19 0.26,0.47 0.26,0.84l0,3.41c0,0.37 -0.09,0.65 -0.27,0.84c-0.17,0.2 -0.45,0.29 -0.82,0.29c-0.37,0 -0.65,-0.09 -0.82,-0.29c-0.18,-0.19 -0.27,-0.47 -0.27,-0.84l0,-3.41c0,-0.37 0.09,-0.65 0.27,-0.84c0.17,-0.2 0.45,-0.3 0.82,-0.3z" fill="#ffffff" id="path4486" stroke-width="0.26"/>
    <path d="m79.03,94.91c-0.7,0 -1.23,0.19 -1.59,0.56c-0.37,0.38 -0.55,0.9 -0.55,1.57l0,3.42c0,0.67 0.18,1.2 0.54,1.57c0.37,0.38 0.9,0.56 1.6,0.56c0.7,0 1.23,-0.18 1.6,-0.55c0.36,-0.38 0.55,-0.91 0.55,-1.58l0,-3.42c0,-0.67 -0.19,-1.2 -0.55,-1.57c-0.36,-0.37 -0.9,-0.56 -1.6,-0.56zm3.87,0.09l0,3.96l0.96,0c0.13,-0.18 0.28,-0.33 0.45,-0.43c0.17,-0.11 0.34,-0.16 0.53,-0.16c0.33,0 0.59,0.12 0.78,0.34c0.18,0.23 0.27,0.54 0.27,0.95l0,0.63c0,0.41 -0.09,0.73 -0.27,0.96c-0.19,0.22 -0.45,0.33 -0.78,0.33c-0.3,0 -0.54,-0.07 -0.72,-0.23c-0.18,-0.15 -0.29,-0.37 -0.33,-0.64l0,-0.01l-1.05,0l0,0.01c0.06,0.39 0.18,0.73 0.36,1.02c0.19,0.28 0.43,0.49 0.72,0.64c0.3,0.15 0.64,0.22 1.02,0.22c0.44,0 0.82,-0.09 1.14,-0.26c0.31,-0.19 0.56,-0.45 0.72,-0.8c0.17,-0.34 0.25,-0.76 0.25,-1.24l0,-0.63c0,-0.49 -0.08,-0.9 -0.24,-1.25c-0.16,-0.34 -0.4,-0.6 -0.71,-0.78c-0.3,-0.18 -0.67,-0.27 -1.11,-0.27c-0.17,0 -0.33,0.03 -0.49,0.09c-0.17,0.06 -0.31,0.14 -0.44,0.25l0,-1.69l2.77,0l0,-1.01l-3.83,0zm-3.87,0.91c0.38,0 0.65,0.1 0.83,0.3c0.17,0.19 0.26,0.47 0.26,0.83l0,3.42c0,0.36 -0.09,0.65 -0.27,0.84c-0.17,0.2 -0.45,0.29 -0.82,0.29c-0.37,0 -0.65,-0.1 -0.82,-0.29c-0.18,-0.19 -0.27,-0.48 -0.27,-0.84l0,-3.42c0,-0.36 0.09,-0.64 0.27,-0.83c0.17,-0.2 0.45,-0.3 0.82,-0.3z" fill="#ffffff" id="path4491" stroke-width="0.26"/>
    <path d="m56.13,101.07c-0.7,0 -1.23,0.19 -1.59,0.56c-0.37,0.38 -0.55,0.9 -0.55,1.57l0,3.42c0,0.67 0.18,1.2 0.54,1.57c0.37,0.38 0.9,0.56 1.6,0.56c0.7,0 1.23,-0.18 1.6,-0.55c0.36,-0.38 0.55,-0.9 0.55,-1.58l0,-3.42c0,-0.67 -0.19,-1.2 -0.55,-1.57c-0.36,-0.37 -0.9,-0.56 -1.6,-0.56zm5.71,0.09l-1.64,3.24c-0.02,0.05 -0.04,0.1 -0.07,0.15c-0.02,0.05 -0.04,0.1 -0.07,0.15c-0.12,0.29 -0.21,0.6 -0.28,0.9c-0.07,0.31 -0.1,0.6 -0.1,0.88l0,0.01c0,0.47 0.08,0.88 0.25,1.23c0.16,0.33 0.4,0.59 0.71,0.77c0.32,0.18 0.69,0.26 1.14,0.26c0.44,0 0.81,-0.09 1.13,-0.26c0.31,-0.18 0.55,-0.45 0.71,-0.79c0.17,-0.34 0.25,-0.76 0.25,-1.24l0,-0.01c0,-0.47 -0.07,-0.87 -0.21,-1.2c-0.15,-0.34 -0.36,-0.6 -0.64,-0.77c-0.28,-0.18 -0.61,-0.27 -1,-0.27c-0.22,0 -0.42,0.05 -0.58,0.14c-0.05,0.02 -0.1,0.06 -0.14,0.09l1.67,-3.28l-1.13,0zm-5.71,0.91c0.38,0 0.65,0.1 0.83,0.3c0.17,0.19 0.26,0.47 0.26,0.83l0,3.42c0,0.37 -0.09,0.65 -0.27,0.84c-0.17,0.2 -0.45,0.29 -0.82,0.29c-0.37,0 -0.65,-0.09 -0.82,-0.29c-0.18,-0.19 -0.27,-0.47 -0.27,-0.84l0,-3.42c0,-0.36 0.09,-0.64 0.27,-0.83c0.17,-0.2 0.45,-0.3 0.82,-0.3zm5.59,3.15c0.35,0 0.63,0.12 0.81,0.35c0.19,0.23 0.29,0.55 0.29,0.97l0,0.01c0,0.38 -0.09,0.67 -0.27,0.88c-0.18,0.21 -0.44,0.31 -0.77,0.31c-0.34,0 -0.59,-0.1 -0.77,-0.3c-0.18,-0.21 -0.27,-0.5 -0.27,-0.89l0,0c0,-0.42 0.08,-0.75 0.25,-0.98c0.18,-0.23 0.42,-0.35 0.73,-0.35z" fill="#ffffff" id="path4496" stroke-width="0.26"/>
    <path d="m33.22,94.91c-0.7,0 -1.23,0.19 -1.6,0.56c-0.36,0.38 -0.54,0.9 -0.54,1.57l0,3.42c0,0.67 0.18,1.2 0.54,1.57c0.36,0.38 0.9,0.56 1.6,0.56c0.7,0 1.23,-0.18 1.6,-0.55c0.36,-0.38 0.55,-0.91 0.55,-1.58l0,-3.42c0,-0.67 -0.19,-1.2 -0.55,-1.57c-0.36,-0.37 -0.9,-0.56 -1.6,-0.56zm3.5,0.09l0,2.09l1.05,0l0,-1.08l1.92,0l-1.95,6.51l1.12,0l1.95,-6.58l0,-0.94l-4.09,0zm-3.5,0.91c0.38,0 0.65,0.1 0.83,0.3c0.17,0.19 0.26,0.47 0.26,0.83l0,3.42c0,0.36 -0.09,0.65 -0.27,0.84c-0.17,0.19 -0.45,0.29 -0.82,0.29c-0.37,0 -0.65,-0.1 -0.83,-0.29c-0.17,-0.19 -0.26,-0.48 -0.26,-0.84l0,-3.42c0,-0.36 0.09,-0.64 0.26,-0.83c0.18,-0.2 0.46,-0.3 0.83,-0.3z" fill="#ffffff" id="path4501" stroke-width="0.26"/>
    <path d="m16.09,78.08c-0.7,0 -1.23,0.19 -1.59,0.56c-0.37,0.38 -0.55,0.9 -0.55,1.58l0,3.41c0,0.67 0.18,1.2 0.54,1.57c0.37,0.38 0.9,0.57 1.6,0.57c0.7,0 1.23,-0.19 1.6,-0.56c0.37,-0.38 0.55,-0.9 0.55,-1.58l0,-3.41c0,-0.68 -0.18,-1.21 -0.55,-1.58c-0.36,-0.37 -0.89,-0.56 -1.6,-0.56zm5.91,0.02c-0.42,0 -0.8,0.08 -1.12,0.24c-0.32,0.17 -0.56,0.4 -0.74,0.7c-0.18,0.29 -0.26,0.64 -0.26,1.03l0,0.18c0,0.3 0.07,0.59 0.23,0.87c0.17,0.27 0.38,0.48 0.64,0.63c-0.31,0.16 -0.56,0.41 -0.75,0.74c-0.19,0.34 -0.28,0.69 -0.28,1.06l0,0.13c0,0.41 0.09,0.78 0.28,1.1c0.19,0.31 0.46,0.55 0.8,0.73c0.35,0.17 0.74,0.26 1.2,0.26c0.45,0 0.85,-0.09 1.2,-0.26c0.34,-0.18 0.61,-0.42 0.79,-0.73c0.19,-0.32 0.29,-0.69 0.29,-1.1l0,-0.13c0,-0.37 -0.1,-0.72 -0.29,-1.05c-0.19,-0.33 -0.44,-0.58 -0.76,-0.75c0.27,-0.15 0.48,-0.35 0.65,-0.63c0.16,-0.27 0.24,-0.56 0.24,-0.87l0,-0.18c0,-0.39 -0.08,-0.74 -0.26,-1.03c-0.18,-0.3 -0.42,-0.53 -0.74,-0.7c-0.32,-0.16 -0.7,-0.24 -1.12,-0.24zm-5.91,0.98c0.38,0 0.65,0.1 0.83,0.3c0.18,0.19 0.26,0.47 0.26,0.84l0,3.41c0,0.37 -0.09,0.65 -0.27,0.84c-0.17,0.2 -0.44,0.29 -0.82,0.29c-0.37,0 -0.64,-0.09 -0.82,-0.29c-0.18,-0.19 -0.27,-0.47 -0.27,-0.84l0,-3.41c0,-0.37 0.09,-0.65 0.27,-0.84c0.17,-0.2 0.45,-0.3 0.82,-0.3zm5.91,0.03c0.21,0 0.4,0.04 0.56,0.13c0.16,0.09 0.29,0.21 0.38,0.38c0.08,0.16 0.13,0.34 0.13,0.55l0,0.08c0,0.22 -0.05,0.41 -0.13,0.58c-0.09,0.17 -0.22,0.3 -0.38,0.39c-0.16,0.09 -0.35,0.14 -0.56,0.14c-0.21,0 -0.4,-0.05 -0.56,-0.14c-0.16,-0.09 -0.29,-0.22 -0.38,-0.38c-0.09,-0.17 -0.13,-0.37 -0.13,-0.58l0,-0.08c0,-0.21 0.04,-0.4 0.13,-0.56c0.09,-0.17 0.22,-0.29 0.38,-0.38c0.16,-0.09 0.35,-0.13 0.56,-0.13zm0,3.26c0.24,0 0.46,0.05 0.65,0.15c0.18,0.09 0.32,0.23 0.42,0.4c0.11,0.18 0.16,0.38 0.16,0.61l0,0.07c0,0.23 -0.05,0.43 -0.16,0.6c-0.1,0.18 -0.24,0.31 -0.42,0.41c-0.19,0.09 -0.41,0.14 -0.65,0.14c-0.24,0 -0.46,-0.04 -0.65,-0.14c-0.18,-0.09 -0.33,-0.23 -0.43,-0.4c-0.1,-0.17 -0.15,-0.37 -0.15,-0.6l0,-0.08c0,-0.23 0.05,-0.43 0.15,-0.61c0.1,-0.17 0.25,-0.31 0.43,-0.4c0.19,-0.1 0.41,-0.15 0.65,-0.15z" fill="#ffffff" id="path4506" stroke-width="0.26"/>
    <path d="m10.15,55.09c-0.69,0 -1.23,0.19 -1.59,0.57c-0.37,0.37 -0.55,0.89 -0.55,1.57l0,3.41c0,0.68 0.18,1.2 0.54,1.57c0.37,0.38 0.9,0.57 1.6,0.57c0.7,0 1.24,-0.19 1.6,-0.56c0.37,-0.38 0.55,-0.9 0.55,-1.58l0,-3.41c0,-0.68 -0.18,-1.21 -0.55,-1.58c-0.36,-0.37 -0.89,-0.56 -1.6,-0.56zm5.65,0.02c-0.44,0 -0.82,0.09 -1.13,0.27c-0.32,0.18 -0.56,0.44 -0.72,0.78c-0.16,0.35 -0.24,0.76 -0.24,1.25l0,0c0,0.44 0.07,0.83 0.22,1.16c0.15,0.33 0.36,0.59 0.63,0.77c0.28,0.18 0.59,0.28 0.95,0.28c0.24,0 0.44,-0.04 0.61,-0.11c0.07,-0.03 0.13,-0.07 0.18,-0.11l-1.67,3.3l1.14,0l1.6,-3.22c0.02,-0.04 0.05,-0.09 0.07,-0.13c0.02,-0.05 0.04,-0.1 0.06,-0.14c0.13,-0.3 0.22,-0.6 0.29,-0.91c0.07,-0.3 0.11,-0.59 0.11,-0.86l0,-0.01c0,-0.48 -0.09,-0.9 -0.25,-1.25c-0.16,-0.35 -0.4,-0.61 -0.72,-0.8c-0.31,-0.18 -0.69,-0.27 -1.13,-0.27zm-5.65,0.99c0.38,0 0.66,0.09 0.83,0.29c0.18,0.19 0.27,0.47 0.27,0.84l0,3.41c0,0.37 -0.09,0.65 -0.27,0.85c-0.18,0.19 -0.45,0.28 -0.83,0.28c-0.37,0 -0.64,-0.09 -0.82,-0.28c-0.18,-0.2 -0.27,-0.48 -0.27,-0.85l0,-3.41c0,-0.37 0.09,-0.65 0.27,-0.84c0.17,-0.2 0.45,-0.29 0.82,-0.29zm5.65,0.02c0.33,0 0.59,0.11 0.77,0.33c0.18,0.21 0.27,0.52 0.27,0.92l0,0c0,0.41 -0.09,0.72 -0.27,0.95c-0.18,0.22 -0.44,0.33 -0.77,0.33c-0.33,0 -0.59,-0.11 -0.77,-0.33c-0.18,-0.22 -0.27,-0.54 -0.27,-0.94l0,-0.01c0,-0.4 0.09,-0.71 0.27,-0.92c0.18,-0.22 0.44,-0.33 0.77,-0.33z" fill="#ffffff" id="path4511" stroke-width="0.26"/>
    <path d="m21.05,32.12c-0.7,0 -1.23,0.19 -1.6,0.56c-0.36,0.38 -0.54,0.9 -0.54,1.57l0,3.42c0,0.67 0.18,1.2 0.54,1.57c0.36,0.38 0.9,0.56 1.6,0.56c0.7,0 1.23,-0.18 1.6,-0.55c0.36,-0.38 0.55,-0.9 0.55,-1.58l0,-3.42c0,-0.67 -0.19,-1.2 -0.55,-1.57c-0.36,-0.37 -0.9,-0.56 -1.6,-0.56zm-4.9,0.09l-1.07,0.72l0,1.09l1.07,-0.66l0,6.37l1.06,0l0,-7.52l-1.06,0zm4.9,0.91c0.38,0 0.65,0.1 0.83,0.3c0.17,0.19 0.26,0.47 0.26,0.83l0,3.42c0,0.37 -0.09,0.65 -0.27,0.84c-0.17,0.2 -0.45,0.29 -0.82,0.29c-0.37,0 -0.65,-0.09 -0.83,-0.29c-0.17,-0.19 -0.26,-0.47 -0.26,-0.84l0,-3.42c0,-0.36 0.09,-0.64 0.26,-0.83c0.18,-0.2 0.46,-0.3 0.83,-0.3z" fill="#ffffff" id="path4516" stroke-width="0.26"/>
    <path d="m34.21,15.39l-1.07,0.71l0,1.09l1.07,-0.66l0,6.37l1.05,0l0,-7.51l-1.05,0zm3.51,0l-1.07,0.71l0,1.09l1.07,-0.66l0,6.37l1.06,0l0,-7.51l-1.06,0z" fill="#ffffff" id="path4521" stroke-width="0.26"/>
    <path d="m60.74,9.19c-0.39,0 -0.74,0.08 -1.05,0.25c-0.3,0.15 -0.55,0.39 -0.74,0.69c-0.19,0.31 -0.31,0.67 -0.38,1.1l0,0.01l1.09,0l0,-0.01c0.05,-0.33 0.16,-0.58 0.35,-0.76c0.19,-0.18 0.44,-0.27 0.74,-0.27c0.33,0 0.58,0.08 0.75,0.24c0.18,0.17 0.27,0.4 0.27,0.7l0,0.01c0,0.19 -0.05,0.39 -0.13,0.61c-0.08,0.21 -0.2,0.42 -0.35,0.62l-2.62,3.49l0,0.91l4.23,0l0,-1l-2.84,0l2.18,-2.95c0.19,-0.27 0.35,-0.55 0.46,-0.84c0.11,-0.29 0.16,-0.57 0.16,-0.83l0,-0.01c0,-0.41 -0.08,-0.77 -0.25,-1.06c-0.16,-0.29 -0.4,-0.51 -0.72,-0.66c-0.32,-0.16 -0.7,-0.24 -1.15,-0.24zm-4.71,0.08l-1.07,0.71l0,1.09l1.07,-0.65l0,6.36l1.05,0l0,-7.51l-1.05,0z" fill="#ffffff" id="path4466" stroke-width="0.26"/>
   </g>
  </g>
 </g>
</svg>